<svg width="605" height="140" viewBox="0 0 605 140" fill="none" xmlns="http://www.w3.org/2000/svg">
<path d="M84.3034 29.7491L40.2353 29.8434C35.1601 29.8503 30.9853 32.2667 28.2897 34.8815C25.7236 37.3718 22.962 41.5738 23.0425 46.8106C23.1287 52.075 25.1683 57.2664 30.159 60.5353L30.9092 60.9944C34.6736 63.1737 38.8521 63.5812 41.502 63.7451C44.1474 63.9088 48.4787 63.8943 50.869 63.9747C53.8619 64.0753 56.6193 64.3215 59.2153 64.938L61.1051 65.4382C78.6379 70.585 89.6751 87.5167 87.9806 105.251C86.2181 123.671 70.7713 139.169 51.2994 139.214L0 139.35V118.775H54.7347C57.3575 118.775 59.9448 117.983 61.8799 116.213C62.2341 115.889 62.601 115.541 62.9662 115.176C66.2887 111.853 67.8003 106.735 67.5452 100.988C67.3423 96.4771 65.7642 91.7348 61.6175 88.4274L60.7526 87.7838C57.3266 85.4155 53.4392 84.7948 50.7132 84.574L49.6228 84.5002L47.2575 84.41C44.9014 84.3555 42.602 84.3927 40.6329 84.3567C37.8621 84.3061 35.1615 84.1209 32.1185 83.4549C13.3486 79.338 1.20015 62.2464 2.75067 43.6377C4.31122 24.9309 19.952 9.3548 39.1284 9.31785L84.3321 9.23587L84.3034 29.7491Z" fill="#F2F6F9"></path>
<path d="M304.624 102.07C304.478 123.671 283.857 139.937 262.392 139.333C241.031 138.727 223.798 122.325 222.104 100.84L221.989 98.7455V44.6052L241.145 44.5929L241.42 99.6555L241.465 100.877C242.271 113.34 254.382 120.893 264.782 120.218C276.958 119.426 285.673 110.138 286.234 97.8887L286.238 97.7944L286.287 44.6093L305.009 44.5396L304.624 102.07Z" fill="#F2F6F9"></path>
<path d="M350.967 43.7484L379.909 43.8181L379.978 61.1871L350.951 61.3388L350.861 91.711H351.18C353.156 105.909 365.101 117.892 379.941 119.968L379.884 139.178C352.741 137.101 331.661 114.77 331.639 87.4681L331.589 19.0333L350.811 12.7039L350.967 43.7484Z" fill="#F2F6F9"></path>
<path d="M418.074 43.7197L447.15 43.8591L447.179 61.2322L418.106 61.3183L418.024 75.8095L418.02 75.8054L417.967 85.8817C417.882 103.007 429.774 117.57 447.118 119.898L447.064 139.178C419.371 136.97 398.727 114.386 398.733 86.6155V19.0907L417.967 12.8187L418.074 43.7197Z" fill="#F2F6F9"></path>
<path fill-rule="evenodd" clip-rule="evenodd" d="M514.068 56.9689C527.077 44.0442 546.431 39.9138 564.626 46.6754C581.021 52.7739 593.861 69.0075 594.789 87.6854C594.993 91.7887 594.968 95.5876 594.892 99.7006L518.676 99.8236L522.796 106.272C532.857 122.009 552.24 123.623 565.618 113.491L578.896 126.125C560.827 142.405 532.47 141.967 514.864 125.293C496.238 107.65 494.517 77.885 512.831 58.2479L514.068 56.9689ZM547.031 61.6134C537.664 61.5655 528.011 66.3388 522.808 75.4898L519.242 81.7659L575.612 81.7454L571.96 75.416C566.303 65.8307 556.547 61.6608 547.031 61.6134Z" fill="#F2F6F9"></path>
<path d="M132.709 50.2951L138.427 48.0405C152.872 42.3413 167.011 43.5012 179.753 52.0455C190.004 58.9246 197.943 71.3538 197.987 85.1848L198.139 137.452L178.974 137.505L178.945 87.5911C178.944 74.8978 169.713 64.6777 157.243 63.7082C145.092 62.7545 132.692 72.3002 132.672 85.7956L132.586 137.456L113.339 137.435V6.37041L132.557 0L132.709 50.2951Z" fill="#F2F6F9"></path>
<path d="M483.52 137.431L464.122 137.476L464.101 6.41141L483.483 0.0737886L483.52 137.431Z" fill="#F2F6F9"></path>
</svg>