<svg width="312" height="322" viewBox="0 0 312 322" fill="none" xmlns="http://www.w3.org/2000/svg">
<path d="M214.166 29.075C227.689 20.1921 294.557 -7.25002 307.955 1.81023C312.752 7.12705 311.719 23.1412 311.314 30.2487C310.179 50.1294 304.418 76.5209 296.639 94.8659C285.54 124.994 259.612 170.619 235.235 191.86C235.246 197.162 235.468 210.62 234.049 215.138C229.083 252.602 201.194 296.146 171.228 318.887C169.404 320.272 168.736 320.816 166.447 321.313C164.261 320.691 163.651 320.193 162.504 318.082L161.089 300.83L159.782 291.252C155.853 282.516 151.434 254.398 135.963 259.256C124.707 264.872 110.629 277.41 98.4759 271.02C92.8056 267.346 89.2057 264.692 83.9228 260.469C78.3242 263.271 67.733 268.891 62.159 265.337C60.3906 257.95 64.7339 251.755 68.2991 245.311C55.5586 232.091 64.8012 221.781 70.1363 207.368C71.0868 204.8 72.3876 202.165 73.4843 199.641L73.6247 197.642C64.6912 184.685 35.8065 184.534 21.3533 185.166C16.0552 185.435 7.81439 188.009 2.62989 186.348C0.894001 185.792 0.552328 183.802 0 182.24C2.81449 174.937 9.54595 165.67 14.3823 159.482C38.726 128.33 78.1852 100.61 118.179 95.9295C119.975 95.3466 129.916 94.8854 132.441 94.721C151.539 70.9695 186.981 42.7975 214.166 29.075Z" fill="#F2F6F9"></path>
<path d="M286.002 67.8687C291.636 76.6588 294.504 84.7995 296.644 94.8655C285.545 124.994 259.617 170.619 235.24 191.86C235.251 197.162 235.473 210.619 234.054 215.137C229.088 252.601 201.199 296.145 171.233 318.887C169.409 320.271 168.741 320.816 166.452 321.312C164.266 320.69 163.656 320.193 162.509 318.082L161.094 300.829L159.787 291.251C155.858 282.515 151.439 254.398 135.967 259.256C124.712 264.871 110.634 277.409 98.4808 271.019C92.8106 267.345 89.2107 264.692 83.9277 260.468C87.0166 258.576 91.5452 257.451 95.0923 256.78C97.7461 252.067 100.44 247.376 103.172 242.709C110.236 234.736 129.715 204.721 131.282 194.889L132.413 192.665C138.768 204.447 115.546 235.843 123.992 238.895C132.742 238.158 169.733 212.848 179.146 206.404C219.641 178.679 249.157 142.524 272.556 99.6704C276.76 91.9728 284.602 76.5307 286.002 67.8687Z" fill="#C4B6EC"></path>
<path d="M235.238 191.861C235.25 197.162 235.472 210.62 234.052 215.138C229.086 252.602 201.197 296.146 171.231 318.888C169.407 320.272 168.739 320.816 166.45 321.313C164.264 320.691 163.654 320.194 162.507 318.082L161.092 300.83L159.785 291.252C155.856 282.516 151.438 254.399 135.966 259.256L138.267 255.976C166.25 241.309 193.082 224.544 218.532 205.824L227.812 198.447L235.238 191.861Z" fill="#4D2E83"></path>
<path d="M225.276 223.633C228.246 221.109 231.386 216.104 234.048 215.138C229.082 252.602 201.193 296.146 171.227 318.887C169.403 320.272 168.735 320.816 166.446 321.313C164.26 320.691 163.65 320.194 162.503 318.082L161.088 300.83C162.413 298.844 163.85 297.154 165.626 295.583C182.494 280.677 195.53 263.562 206.549 243.965C208.496 240.502 211.229 235.733 214.329 233.273C217.281 230.936 220.351 228.753 223.526 226.732L225.276 223.633Z" fill="#6E51A9"></path>
<path d="M161.088 300.83C162.413 298.844 163.85 297.154 165.626 295.583C182.494 280.677 195.53 263.562 206.549 243.965C208.496 240.502 211.229 235.733 214.329 233.273C217.281 230.936 220.351 228.753 223.526 226.732C217.589 244.708 208.834 261.627 197.588 276.855C194.393 281.234 191.139 285.472 187.534 289.525C179.98 298.017 170.895 304.962 163.228 313.278C162.489 314.079 162.532 316.947 162.503 318.082L161.088 300.83Z" fill="#5C3E94"></path>
<path d="M235.238 191.861C235.249 197.162 235.471 210.62 234.052 215.138C231.39 216.104 228.25 221.109 225.28 223.633L223.53 226.732C220.354 228.754 217.285 230.937 214.333 233.273C211.233 235.734 208.5 240.502 206.553 243.965C195.534 263.562 182.498 280.677 165.63 295.583C163.853 297.154 162.416 298.844 161.092 300.83L159.785 291.252C161.373 292.471 161.571 294.585 162.086 296.62C161.617 292.224 163.631 280.765 164.155 275.924C166.33 255.844 193.445 247.24 210.213 235.534C212.274 231.325 219.749 209.854 218.532 205.824L227.811 198.447L235.238 191.861Z" fill="#4D2E83"></path>
<path d="M235.237 191.861C235.249 197.162 235.471 210.62 234.051 215.138C231.39 216.104 228.249 221.109 225.279 223.633C226.946 215.671 228.511 206.514 227.811 198.447L235.237 191.861Z" fill="#4D2E83"></path>
<path d="M103.172 242.71C107.586 246.934 110.063 248.764 114.983 252.312C119.319 254.35 122.697 255.891 127.219 257.586C132.363 258.578 133.624 257.947 138.269 255.976L135.967 259.257C124.712 264.873 110.634 277.411 98.4808 271.021C92.8106 267.347 89.2107 264.693 83.9277 260.47C87.0166 258.577 91.5452 257.452 95.0923 256.781C97.7461 252.068 100.44 247.378 103.172 242.71Z" fill="#5C3E94"></path>
<path d="M127.212 257.587C132.355 258.578 133.616 257.947 138.262 255.976L135.96 259.257C124.705 264.873 110.627 277.411 98.4736 271.021C100.52 268.947 103.688 269.658 106.874 268.154C113.744 264.909 120.465 261.108 127.212 257.587Z" fill="#6E51A9"></path>
<path d="M103.163 242.71C107.577 246.934 110.054 248.764 114.974 252.312C111.575 253.997 109.59 251.961 107.301 252.78C104.026 253.952 101.143 257.595 97.309 258.341C96.1594 257.731 95.9481 257.728 95.083 256.781C97.7368 252.068 100.43 247.378 103.163 242.71Z" fill="#4D2E83"></path>
<path d="M118.179 95.9292C119.975 95.3463 129.916 94.8851 132.441 94.7207C125.968 103.968 119.88 113.575 113.538 122.62C99.0854 147.627 91.5511 163.532 79.4433 189.041C78.3778 191.571 76.1902 197.231 75.0117 199.427L73.4843 199.641L73.6247 197.642C64.6912 184.685 35.8065 184.534 21.3533 185.165C16.0552 185.435 7.81439 188.009 2.62989 186.348C0.894001 185.792 0.552328 183.802 0 182.24C2.81449 174.936 9.54595 165.67 14.3823 159.481C38.726 128.33 78.1852 100.61 118.179 95.9292Z" fill="#5C3E94"></path>
<path d="M24.0859 182.247C26.9352 179.293 30.4511 174.252 32.9695 170.7C44.8985 153.881 93.0633 119.682 113.534 122.62C99.0817 147.627 91.5474 163.532 79.4396 189.041C78.3741 191.571 76.1865 197.231 75.008 199.427L73.4806 199.641L73.621 197.642C64.6875 184.685 35.8028 184.534 21.3496 185.165C22.3327 183.514 22.5303 183.447 24.0859 182.247Z" fill="#4D2E83"></path>
<path d="M24.0859 182.247C41.5795 178.602 64.9879 176.545 79.4396 189.041C78.3741 191.571 76.1865 197.231 75.008 199.426L73.4806 199.64L73.621 197.641C64.6875 184.684 35.8028 184.533 21.3496 185.165C22.3327 183.513 22.5303 183.446 24.0859 182.247Z" fill="#362656"></path>
<path d="M14.3823 159.482C9.54595 165.67 2.81449 174.937 0 182.241H1.88984C32.2932 132.1 78.4161 110.541 79.5592 108.726C87.7189 105.125 96.8116 101.487 105.459 99.2256C109.949 98.0512 114.633 98.1794 119.431 96.6733L118.179 95.9297C78.1852 100.61 38.726 128.33 14.3823 159.482Z" fill="#6E51A9"></path>
<path d="M214.171 29.075C227.694 20.1921 294.562 -7.25002 307.96 1.81023C312.758 7.12705 311.725 23.1412 311.319 30.2487C310.184 50.1294 304.423 76.5209 296.644 94.8659C294.504 84.7999 291.637 76.6592 286.002 67.869C283.488 64.1741 280.864 60.9534 278.083 57.4743C264.288 41.9047 245.203 33.7872 225.133 30.1133C221.474 29.8215 217.819 29.4754 214.171 29.075Z" fill="#5C3E94"></path>
<path d="M307.951 1.81055C312.749 7.12737 311.716 23.1416 311.31 30.249C310.175 50.1297 304.414 76.5212 296.635 94.8662C294.495 84.8002 291.628 76.6595 285.993 67.8694C283.479 64.1744 280.855 60.9538 278.074 57.4746C290.502 41.1397 301.947 22.8353 307.673 2.90027L307.951 1.81055Z" fill="#4D2E83"></path>
<path d="M214.171 29.075C227.694 20.1921 294.562 -7.25002 307.96 1.81023L307.682 2.89995C283.894 4.98454 263.565 11.8733 241.611 21.061C237.178 22.9168 229.003 26.1664 225.443 29.0004L225.133 30.1133C221.474 29.8215 217.819 29.4754 214.171 29.075Z" fill="#6E51A9"></path>
<path d="M117.911 190.82C124.087 186.634 127.314 186.784 132.413 192.664L131.282 194.889C129.715 204.721 110.236 234.736 103.172 242.709C100.439 247.376 97.7457 252.067 95.0919 256.78C91.5448 257.451 87.0162 258.576 83.9273 260.468C78.3288 263.27 67.7375 268.891 62.1636 265.336C60.3951 257.949 64.7384 251.754 68.3036 245.311C55.5631 232.091 64.8058 221.781 70.1408 207.367C71.0913 204.8 72.3921 202.165 73.4888 199.641L75.0162 199.427C73.9905 205.101 74.4632 207.786 75.7655 213.425L81.6493 223.494L82.5194 223.857C83.9534 222.849 88.9475 217.386 90.3309 215.901C96.2624 209.529 100.897 204.554 107.709 199.148C109.951 196.553 114.924 192.478 117.911 190.82Z" fill="#6E51A9"></path>
<path d="M117.915 190.82C124.091 186.634 127.317 186.784 132.416 192.664L131.285 194.889C129.718 204.721 110.239 234.736 103.175 242.709C100.443 247.376 97.7491 252.067 95.0953 256.78C91.5482 257.451 87.0196 258.576 83.9308 260.468C78.3322 263.27 67.7409 268.891 62.167 265.336L66.2237 264.084C67.898 261.787 69.7989 257.809 71.7933 255.008C76.7157 248.095 81.8742 241.601 87.2947 235.088C95.3016 225.619 103.616 216.415 112.225 207.49C115.722 203.909 126.55 194.949 127.039 190.77C124.058 187.736 122.683 192.573 117.915 190.82Z" fill="#5C3E94"></path>
<path d="M66.2237 264.084C75.711 259.39 89.3179 254.91 95.1532 245.612C105.72 228.776 122.259 212.772 130.309 194.749L131.285 194.889C129.718 204.721 110.239 234.735 103.175 242.709C100.443 247.376 97.7491 252.067 95.0953 256.78C91.5482 257.451 87.0196 258.575 83.9308 260.468C78.3322 263.27 67.7409 268.89 62.167 265.336L66.2237 264.084Z" fill="#4D2E83"></path>
<path d="M73.4861 199.641L75.0135 199.426C73.9878 205.101 74.4605 207.786 75.7627 213.425L81.6465 223.494C78.9674 225.791 78.2363 227.081 76.2789 229.996C73.295 233.811 70.6477 237.332 70.2742 242.345L68.3009 245.31C55.5604 232.09 64.8031 221.78 70.1381 207.367C71.0886 204.8 72.3894 202.165 73.4861 199.641Z" fill="#5C3E94"></path>
<path d="M75.7629 213.425L81.6467 223.494C78.9676 225.791 78.2364 227.082 76.279 229.996C75.3937 224.907 73.4747 217.922 75.7629 213.425Z" fill="#4D2E83"></path>
<path d="M107.709 199.149L108.609 200.18C107.605 203.705 91.1722 216.096 88.4257 220.475C88.1239 220.956 83.989 225.138 83.2145 225.882L82.5195 223.857C83.9536 222.85 88.9477 217.386 90.331 215.901C96.2626 209.529 100.898 204.554 107.709 199.149Z" fill="#4D2E83"></path>
<path d="M81.6516 223.493L82.5217 223.855L83.2167 225.881C78.62 231.241 74.5394 236.718 70.2793 242.344C70.6528 237.331 73.3001 233.81 76.284 229.995C78.2414 227.08 78.9725 225.79 81.6516 223.493Z" fill="#4D2E83"></path>
<path d="M226.327 48.9643C243.298 46.0304 259.409 57.4873 262.213 74.4841C265.018 91.4808 253.442 107.509 236.428 110.185C219.596 112.832 203.781 101.403 201.007 84.5884C198.232 67.7727 209.538 51.8671 226.327 48.9643Z" fill="#6E51A9"></path>
<path d="M209.331 84.2861C208.968 81.8416 208.752 80.2385 209.166 77.7767C210.23 71.4411 213.795 65.7992 219.06 62.121C225.675 57.4942 231.495 57.2335 239.041 58.5832C251.479 63.8768 257.332 73.9276 251.191 86.8942C248.393 92.7845 243.351 97.307 237.193 99.4495C224.512 103.899 211.883 97.9956 209.331 84.2861Z" fill="#00C2AF"></path>
<path d="M209.331 84.2861C208.968 81.8416 208.752 80.2385 209.166 77.7767C210.23 71.4411 213.795 65.7992 219.06 62.121C225.675 57.4942 231.495 57.2335 239.041 58.5832L238.155 62.8066C246.441 76.0954 231.073 72.8154 227.141 76.0781C226.298 78.8686 225.822 81.4195 223.655 83.3759C219.636 85.4627 217.19 84.5156 213.298 83.0117L212.364 82.914C211.054 81.2399 210.936 79.3878 210.882 77.238C209.955 78.2771 209.611 82.5208 209.331 84.2861Z" fill="#B6C4D5"></path>
<path d="M209.331 84.2861C208.968 81.8416 208.752 80.2385 209.166 77.7767C210.23 71.4411 213.795 65.7992 219.06 62.121C225.675 57.4942 231.495 57.2335 239.041 58.5832L238.155 62.8066C234.878 61.331 232.129 59.8821 228.585 61.2246C227.217 62.5583 224.622 67.7339 224.099 67.8447C212.69 70.2631 211.442 69.434 213.298 83.0117L212.364 82.914C211.054 81.2399 210.936 79.3878 210.882 77.238C209.955 78.2771 209.611 82.5208 209.331 84.2861Z" fill="#B7F8ED"></path>
</svg>