<svg width="1024" height="1024" viewBox="0 0 1024 1024" fill="none" xmlns="http://www.w3.org/2000/svg">
<rect width="1024" height="1024" fill="#211832"></rect>
<path d="M569.995 285.306C583.518 276.424 650.386 248.981 663.784 258.042C668.582 263.358 667.549 279.373 667.143 286.48C666.008 306.361 660.247 332.752 652.469 351.097C641.369 381.226 615.441 426.851 591.064 448.092C591.075 453.393 591.298 466.851 589.878 471.369C584.912 508.833 557.023 552.377 527.057 575.119C525.233 576.503 524.565 577.047 522.276 577.544C520.09 576.922 519.48 576.425 518.333 574.313L516.918 557.061L515.611 547.483C511.682 538.747 507.263 510.63 491.792 515.487C480.536 521.103 466.458 533.641 454.305 527.251C448.635 523.577 445.035 520.924 439.752 516.7C434.153 519.502 423.562 525.122 417.988 521.568C416.22 514.181 420.563 507.986 424.128 501.542C411.388 488.322 420.63 478.012 425.965 463.599C426.916 461.032 428.217 458.397 429.313 455.873L429.454 453.874C420.52 440.916 391.636 440.766 377.182 441.397C371.884 441.667 363.643 444.241 358.459 442.58C356.723 442.023 356.381 440.034 355.829 438.472C358.644 431.168 365.375 421.902 370.211 415.713C394.555 384.562 434.014 356.841 474.009 352.161C475.805 351.578 485.745 351.117 488.27 350.952C507.368 327.201 542.81 299.029 569.995 285.306Z" fill="#F2F6F9"></path>
<path d="M641.831 324.1C647.466 332.89 650.333 341.031 652.473 351.097C641.374 381.225 615.446 426.85 591.069 448.091C591.08 453.393 591.303 466.851 589.883 471.369C584.917 508.833 557.028 552.377 527.062 575.118C525.238 576.503 524.57 577.047 522.281 577.544C520.095 576.922 519.485 576.424 518.338 574.313L516.923 557.061L515.616 547.483C511.687 538.747 507.268 510.629 491.797 515.487C480.541 521.103 466.463 533.641 454.31 527.251C448.64 523.577 445.04 520.923 439.757 516.7C442.846 514.807 447.374 513.683 450.921 513.011C453.575 508.298 456.269 503.608 459.001 498.941C466.065 490.967 485.544 460.952 487.112 451.12L488.242 448.896C494.597 460.678 471.375 492.074 479.821 495.126C488.571 494.389 525.562 469.079 534.975 462.635C575.47 434.911 604.986 398.755 628.385 355.902C632.589 348.204 640.431 332.762 641.831 324.1Z" fill="#C4B6EC"></path>
<path d="M591.067 448.092C591.079 453.394 591.301 466.851 589.881 471.37C584.915 508.834 557.026 552.377 527.06 575.119C525.236 576.503 524.568 577.048 522.279 577.545C520.093 576.923 519.483 576.425 518.336 574.314L516.921 557.061L515.615 547.484C511.685 538.748 507.267 510.63 491.795 515.488L494.096 512.207C522.079 497.54 548.911 480.775 574.361 462.055L583.641 454.678L591.067 448.092Z" fill="#4D2E83"></path>
<path d="M581.105 479.864C584.075 477.34 587.215 472.335 589.877 471.369C584.911 508.833 557.022 552.377 527.056 575.119C525.232 576.503 524.564 577.048 522.275 577.544C520.089 576.922 519.479 576.425 518.332 574.314L516.917 557.061C518.242 555.075 519.679 553.385 521.455 551.815C538.323 536.908 551.359 519.794 562.378 500.197C564.325 496.733 567.058 491.965 570.158 489.504C573.11 487.168 576.18 484.985 579.355 482.963L581.105 479.864Z" fill="#6E51A9"></path>
<path d="M516.917 557.061C518.242 555.075 519.679 553.385 521.455 551.815C538.323 536.908 551.359 519.794 562.378 500.197C564.325 496.733 567.058 491.965 570.158 489.504C573.11 487.168 576.18 484.985 579.355 482.963C573.418 500.94 564.663 517.858 553.417 533.087C550.222 537.465 546.968 541.704 543.364 545.756C535.809 554.248 526.724 561.193 519.057 569.509C518.318 570.311 518.361 573.178 518.332 574.314L516.917 557.061Z" fill="#5C3E94"></path>
<path d="M591.067 448.092C591.078 453.394 591.301 466.851 589.881 471.37C587.219 472.336 584.079 477.34 581.109 479.864L579.359 482.963C576.184 484.985 573.114 487.168 570.162 489.505C567.062 491.965 564.329 496.734 562.382 500.197C551.363 519.794 538.327 536.909 521.459 551.815C519.683 553.385 518.246 555.075 516.921 557.062L515.614 547.484C517.202 548.703 517.4 550.816 517.915 552.852C517.446 548.455 519.46 536.997 519.984 532.156C522.159 512.076 549.274 503.472 566.042 491.765C568.103 487.557 575.578 466.085 574.361 462.055L583.64 454.678L591.067 448.092Z" fill="#4D2E83"></path>
<path d="M591.066 448.092C591.078 453.394 591.3 466.851 589.881 471.37C587.219 472.336 584.079 477.34 581.108 479.864C582.775 471.903 584.34 462.745 583.64 454.678L591.066 448.092Z" fill="#4D2E83"></path>
<path d="M459.001 498.942C463.415 503.165 465.892 504.995 470.812 508.544C475.148 510.581 478.526 512.122 483.048 513.818C488.192 514.809 489.453 514.178 494.098 512.208L491.797 515.488C480.541 521.104 466.463 533.642 454.31 527.252C448.64 523.578 445.04 520.925 439.757 516.701C442.846 514.808 447.374 513.684 450.921 513.013C453.575 508.3 456.269 503.609 459.001 498.942Z" fill="#5C3E94"></path>
<path d="M483.041 513.818C488.184 514.809 489.445 514.179 494.091 512.208L491.789 515.489C480.534 521.104 466.456 533.642 454.303 527.252C456.349 525.179 459.517 525.889 462.703 524.385C469.573 521.141 476.294 517.339 483.041 513.818Z" fill="#6E51A9"></path>
<path d="M458.992 498.942C463.406 503.165 465.883 504.995 470.803 508.544C467.404 510.229 465.42 508.193 463.13 509.012C459.855 510.184 456.972 513.827 453.138 514.572C451.989 513.962 451.777 513.959 450.912 513.013C453.566 508.3 456.259 503.609 458.992 498.942Z" fill="#4D2E83"></path>
<path d="M474.009 352.161C475.805 351.578 485.745 351.117 488.27 350.952C481.797 360.2 475.709 369.807 469.367 378.851C454.914 403.859 447.38 419.763 435.272 445.273C434.207 447.803 432.019 453.463 430.841 455.658L429.313 455.873L429.454 453.873C420.52 440.916 391.636 440.766 377.182 441.397C371.884 441.666 363.643 444.24 358.459 442.579C356.723 442.023 356.381 440.034 355.829 438.472C358.644 431.168 365.375 421.902 370.211 415.713C394.555 384.561 434.014 356.841 474.009 352.161Z" fill="#5C3E94"></path>
<path d="M379.915 438.479C382.764 435.524 386.28 430.483 388.799 426.931C400.728 410.112 448.892 375.913 469.363 378.851C454.911 403.858 447.377 419.763 435.269 445.273C434.203 447.803 432.016 453.463 430.837 455.658L429.31 455.872L429.45 453.873C420.517 440.916 391.632 440.766 377.179 441.397C378.162 439.745 378.359 439.679 379.915 438.479Z" fill="#4D2E83"></path>
<path d="M379.915 438.478C397.409 434.833 420.817 432.777 435.269 445.272C434.203 447.802 432.016 453.462 430.837 455.657L429.31 455.872L429.45 453.873C420.517 440.915 391.632 440.765 377.179 441.396C378.162 439.745 378.359 439.678 379.915 438.478Z" fill="#362656"></path>
<path d="M370.211 415.713C365.375 421.902 358.644 431.168 355.829 438.472H357.719C388.122 388.331 434.245 366.772 435.388 364.958C443.548 361.357 452.641 357.718 461.288 355.457C465.778 354.283 470.462 354.411 475.26 352.905L474.009 352.161C434.014 356.842 394.555 384.562 370.211 415.713Z" fill="#6E51A9"></path>
<path d="M570 285.306C583.523 276.424 650.391 248.981 663.789 258.042C668.587 263.358 667.554 279.373 667.148 286.48C666.013 306.361 660.252 332.752 652.474 351.097C650.333 341.031 647.466 332.891 641.831 324.1C639.317 320.406 636.693 317.185 633.912 313.706C620.117 298.136 601.032 290.019 580.962 286.345C577.303 286.053 573.648 285.707 570 285.306Z" fill="#5C3E94"></path>
<path d="M663.78 258.042C668.578 263.359 667.545 279.373 667.139 286.48C666.004 306.361 660.243 332.753 652.465 351.098C650.324 341.032 647.457 332.891 641.822 324.101C639.308 320.406 636.685 317.185 633.903 313.706C646.331 297.371 657.776 279.067 663.502 259.132L663.78 258.042Z" fill="#4D2E83"></path>
<path d="M570 285.306C583.523 276.424 650.391 248.981 663.789 258.042L663.511 259.131C639.723 261.216 619.394 268.105 597.44 277.292C593.007 279.148 584.832 282.398 581.272 285.232L580.962 286.345C577.303 286.053 573.648 285.707 570 285.306Z" fill="#6E51A9"></path>
<path d="M473.74 447.052C479.916 442.866 483.143 443.016 488.242 448.896L487.111 451.12C485.544 460.952 466.065 490.967 459.001 498.941C456.268 503.608 453.575 508.298 450.921 513.011C447.374 513.683 442.845 514.807 439.756 516.7C434.158 519.502 423.567 525.122 417.993 521.568C416.224 514.181 420.568 507.986 424.133 501.542C411.392 488.322 420.635 478.012 425.97 463.599C426.92 461.031 428.221 458.396 429.318 455.872L430.845 455.658C429.82 461.332 430.292 464.017 431.595 469.656L437.478 479.725L438.348 480.088C439.782 479.081 444.777 473.618 446.16 472.133C452.092 465.76 456.727 460.785 463.538 455.38C465.78 452.785 470.753 448.71 473.74 447.052Z" fill="#6E51A9"></path>
<path d="M473.744 447.052C479.92 442.866 483.146 443.016 488.245 448.896L487.115 451.12C485.547 460.952 466.068 490.967 459.004 498.941C456.272 503.608 453.578 508.298 450.924 513.011C447.377 513.683 442.849 514.807 439.76 516.7C434.161 519.502 423.57 525.122 417.996 521.568L422.053 520.316C423.727 518.019 425.628 514.041 427.622 511.24C432.545 504.326 437.703 497.833 443.124 491.319C451.131 481.85 459.445 472.646 468.055 463.721C471.551 460.141 482.38 451.18 482.868 447.001C479.887 443.968 478.512 448.804 473.744 447.052Z" fill="#5C3E94"></path>
<path d="M422.053 520.315C431.54 515.621 445.147 511.142 450.982 501.843C461.549 485.007 478.088 469.004 486.138 450.98L487.115 451.12C485.547 460.952 466.068 490.967 459.004 498.94C456.272 503.608 453.578 508.298 450.924 513.011C447.377 513.682 442.849 514.807 439.76 516.699C434.161 519.502 423.57 525.122 417.996 521.567L422.053 520.315Z" fill="#4D2E83"></path>
<path d="M429.315 455.872L430.843 455.658C429.817 461.332 430.29 464.017 431.592 469.656L437.476 479.725C434.797 482.022 434.065 483.313 432.108 486.227C429.124 490.042 426.477 493.563 426.103 498.576L424.13 501.542C411.39 488.322 420.632 478.012 425.967 463.599C426.918 461.031 428.219 458.396 429.315 455.872Z" fill="#5C3E94"></path>
<path d="M431.592 469.656L437.476 479.725C434.797 482.023 434.066 483.313 432.108 486.227C431.223 481.138 429.304 474.154 431.592 469.656Z" fill="#4D2E83"></path>
<path d="M463.539 455.38L464.438 456.412C463.434 459.936 447.001 472.328 444.255 476.707C443.953 477.188 439.818 481.369 439.044 482.113L438.349 480.088C439.783 479.081 444.777 473.618 446.16 472.133C452.092 465.76 456.727 460.785 463.539 455.38Z" fill="#4D2E83"></path>
<path d="M437.481 479.724L438.351 480.087L439.046 482.112C434.449 487.472 430.368 492.949 426.108 498.575C426.482 493.562 429.129 490.041 432.113 486.226C434.07 483.312 434.802 482.022 437.481 479.724Z" fill="#4D2E83"></path>
<path d="M582.156 305.196C599.127 302.262 615.238 313.719 618.042 330.716C620.847 347.712 609.271 363.74 592.257 366.417C575.425 369.064 559.61 357.635 556.836 340.82C554.061 324.004 565.367 308.099 582.156 305.196Z" fill="#6E51A9"></path>
<path d="M565.16 340.517C564.797 338.073 564.581 336.47 564.995 334.008C566.059 327.672 569.624 322.03 574.89 318.352C581.505 313.725 587.325 313.465 594.87 314.814C607.308 320.108 613.161 330.159 607.02 343.125C604.222 349.016 599.18 353.538 593.022 355.681C580.341 360.13 567.712 354.227 565.16 340.517Z" fill="#00C2AF"></path>
<path d="M565.16 340.517C564.797 338.073 564.581 336.47 564.995 334.008C566.059 327.672 569.624 322.03 574.89 318.352C581.504 313.725 587.325 313.465 594.87 314.814L593.984 319.038C602.27 332.327 586.903 329.047 582.97 332.309C582.127 335.1 581.651 337.651 579.484 339.607C575.465 341.694 573.019 340.747 569.127 339.243L568.193 339.145C566.883 337.471 566.765 335.619 566.711 333.469C565.784 334.508 565.44 338.752 565.16 340.517Z" fill="#B6C4D5"></path>
<path d="M565.16 340.517C564.797 338.073 564.581 336.47 564.995 334.008C566.059 327.672 569.624 322.03 574.89 318.352C581.505 313.725 587.325 313.465 594.87 314.814L593.984 319.038C590.707 317.562 587.958 316.113 584.415 317.456C583.046 318.789 580.451 323.965 579.929 324.076C568.519 326.494 567.271 325.665 569.127 339.243L568.193 339.145C566.883 337.471 566.765 335.619 566.711 333.469C565.784 334.508 565.44 338.752 565.16 340.517Z" fill="#B7F8ED"></path>
<path d="M293.745 658.63L249.677 658.725C244.602 658.732 240.427 661.148 237.731 663.763C235.165 666.253 232.403 670.455 232.484 675.692C232.57 680.956 234.61 686.148 239.6 689.417L240.351 689.876C244.115 692.055 248.294 692.463 250.943 692.626C253.589 692.79 257.92 692.776 260.31 692.856C263.303 692.957 266.061 693.203 268.657 693.819L270.547 694.32C288.079 699.466 299.117 716.398 297.422 734.133C295.66 752.552 280.213 768.05 260.741 768.096L209.441 768.231V747.656H264.176C266.799 747.656 269.386 746.865 271.321 745.094C271.676 744.77 272.042 744.422 272.408 744.057C275.73 740.734 277.242 735.616 276.987 729.869C276.784 725.358 275.206 720.616 271.059 717.309L270.194 716.665C266.768 714.297 262.881 713.676 260.155 713.455L259.064 713.382L256.699 713.291C254.343 713.237 252.043 713.274 250.074 713.238C247.304 713.187 244.603 713.002 241.56 712.336C222.79 708.219 210.642 691.128 212.192 672.519C213.753 653.812 229.393 638.236 248.57 638.199L293.774 638.117L293.745 658.63Z" fill="#F2F6F9"></path>
<path d="M514.065 730.951C513.92 752.552 493.299 768.818 471.834 768.215C450.472 767.608 433.24 751.206 431.545 729.722L431.43 727.627V673.487L450.587 673.474L450.861 728.537L450.906 729.759C451.712 742.221 463.824 749.774 474.223 749.099C486.399 748.307 495.114 739.019 495.675 726.77L495.68 726.676L495.729 673.491L514.451 673.421L514.065 730.951Z" fill="#F2F6F9"></path>
<path d="M560.408 672.63L589.35 672.699L589.42 690.068L560.392 690.22L560.302 720.592H560.622C562.597 734.791 574.543 746.774 589.383 748.849L589.325 768.059C562.182 765.982 541.102 743.652 541.08 716.349L541.031 647.915L560.253 641.585L560.408 672.63Z" fill="#F2F6F9"></path>
<path d="M627.515 672.601L656.592 672.74L656.621 690.114L627.548 690.2L627.466 704.691L627.462 704.687L627.409 714.763C627.324 731.888 639.215 746.452 656.559 748.78L656.506 768.059C628.812 765.851 608.168 743.267 608.174 715.497V647.972L627.409 641.7L627.515 672.601Z" fill="#F2F6F9"></path>
<path fill-rule="evenodd" clip-rule="evenodd" d="M723.51 685.85C736.518 672.926 755.872 668.795 774.067 675.557C790.463 681.655 803.302 697.889 804.23 716.567C804.434 720.67 804.409 724.469 804.333 728.582L728.118 728.705L732.237 735.153C742.299 750.89 761.681 752.505 775.059 742.372L788.337 755.006C770.268 771.287 741.911 770.849 724.305 754.174C705.679 736.532 703.959 706.766 722.272 687.129L723.51 685.85ZM756.473 690.495C747.105 690.447 737.452 695.22 732.25 704.371L728.683 710.647L785.054 710.627L781.401 704.297C775.744 694.712 765.988 690.542 756.473 690.495Z" fill="#F2F6F9"></path>
<path d="M342.15 679.176L347.869 676.922C362.313 671.223 376.453 672.383 389.194 680.927C399.445 687.806 407.384 700.235 407.428 714.066L407.58 766.333L388.416 766.386L388.387 716.472C388.385 703.779 379.154 693.559 366.685 692.59C354.534 691.636 342.134 701.182 342.113 714.677L342.027 766.337L322.781 766.317V635.252L341.998 628.881L342.15 679.176Z" fill="#F2F6F9"></path>
<path d="M692.961 766.313L673.563 766.358L673.543 635.293L692.925 628.955L692.961 766.313Z" fill="#F2F6F9"></path>
</svg>