<svg width="605" height="512" viewBox="0 0 605 512" fill="none" xmlns="http://www.w3.org/2000/svg">
<path d="M360.554 29.075C374.077 20.1921 440.944 -7.25002 454.343 1.81023C459.14 7.12705 458.107 23.1412 457.702 30.2487C456.567 50.1294 450.805 76.5209 443.027 94.8659C431.928 124.994 405.999 170.619 381.622 191.86C381.634 197.162 381.856 210.62 380.437 215.138C375.471 252.602 347.581 296.146 317.615 318.887C315.792 320.272 315.124 320.816 312.835 321.313C310.649 320.691 310.038 320.193 308.892 318.082L307.476 300.83L306.17 291.252C302.241 282.516 297.822 254.398 282.35 259.256C271.094 264.872 257.017 277.41 244.864 271.02C239.193 267.346 235.593 264.692 230.31 260.469C224.712 263.271 214.121 268.891 208.547 265.337C206.778 257.95 211.122 251.755 214.687 245.311C201.946 232.091 211.189 221.781 216.524 207.368C217.474 204.8 218.775 202.165 219.872 199.641L220.012 197.642C211.079 184.685 182.194 184.534 167.741 185.166C162.443 185.435 154.202 188.009 149.018 186.348C147.282 185.792 146.94 183.802 146.388 182.24C149.202 174.937 155.934 165.67 160.77 159.482C185.114 128.33 224.573 100.61 264.567 95.9295C266.363 95.3466 276.304 94.8854 278.828 94.721C297.927 70.9695 333.369 42.7975 360.554 29.075Z" fill="#F2F6F9"></path>
<path d="M432.389 67.8687C438.024 76.6588 440.891 84.7995 443.032 94.8655C431.933 124.994 406.004 170.619 381.627 191.86C381.639 197.162 381.861 210.619 380.442 215.137C375.476 252.601 347.586 296.145 317.62 318.887C315.797 320.271 315.129 320.816 312.84 321.312C310.653 320.69 310.043 320.193 308.897 318.082L307.481 300.829L306.175 291.251C302.246 282.515 297.827 254.398 282.355 259.256C271.099 264.871 257.022 277.409 244.869 271.019C239.198 267.345 235.598 264.692 230.315 260.468C233.404 258.576 237.933 257.451 241.48 256.78C244.134 252.067 246.827 247.376 249.56 242.709C256.624 234.736 276.103 204.721 277.67 194.889L278.801 192.665C285.156 204.447 261.934 235.843 270.38 238.895C279.13 238.158 316.121 212.848 325.534 206.404C366.028 178.679 395.545 142.524 418.944 99.6704C423.147 91.9728 430.99 76.5307 432.389 67.8687Z" fill="#C4B6EC"></path>
<path d="M381.626 191.861C381.637 197.162 381.86 210.62 380.44 215.138C375.474 252.602 347.585 296.146 317.619 318.888C315.795 320.272 315.127 320.816 312.838 321.313C310.652 320.691 310.042 320.194 308.895 318.082L307.48 300.83L306.173 291.252C302.244 282.516 297.825 254.399 282.354 259.256L284.655 255.976C312.637 241.309 339.469 224.544 364.92 205.824L374.199 198.447L381.626 191.861Z" fill="#4D2E83"></path>
<path d="M371.664 223.633C374.634 221.109 377.774 216.104 380.436 215.138C375.47 252.602 347.581 296.146 317.614 318.887C315.791 320.272 315.123 320.816 312.834 321.313C310.648 320.691 310.037 320.194 308.891 318.082L307.476 300.83C308.8 298.844 310.237 297.154 312.014 295.583C328.882 280.677 341.918 263.562 352.937 243.965C354.884 240.502 357.617 235.733 360.717 233.273C363.669 230.936 366.738 228.753 369.914 226.732L371.664 223.633Z" fill="#6E51A9"></path>
<path d="M307.476 300.83C308.8 298.844 310.237 297.154 312.014 295.583C328.882 280.677 341.918 263.562 352.937 243.965C354.884 240.502 357.617 235.733 360.717 233.273C363.669 230.936 366.738 228.753 369.914 226.732C363.977 244.708 355.221 261.627 343.976 276.855C340.781 281.234 337.526 285.472 333.922 289.525C326.368 298.017 317.283 304.962 309.615 313.278C308.877 314.079 308.92 316.947 308.891 318.082L307.476 300.83Z" fill="#5C3E94"></path>
<path d="M381.625 191.861C381.637 197.162 381.859 210.62 380.44 215.138C377.778 216.104 374.638 221.109 371.668 223.633L369.918 226.732C366.742 228.754 363.673 230.937 360.721 233.273C357.62 235.734 354.888 240.502 352.94 243.965C341.921 263.562 328.886 280.677 312.018 295.583C310.241 297.154 308.804 298.844 307.479 300.83L306.173 291.252C307.761 292.471 307.959 294.585 308.474 296.62C308.005 292.224 310.019 280.765 310.543 275.924C312.718 255.844 339.832 247.24 356.6 235.534C358.661 231.325 366.137 209.854 364.919 205.824L374.199 198.447L381.625 191.861Z" fill="#4D2E83"></path>
<path d="M381.625 191.861C381.636 197.162 381.859 210.62 380.439 215.138C377.777 216.104 374.637 221.109 371.667 223.633C373.333 215.671 374.898 206.514 374.198 198.447L381.625 191.861Z" fill="#4D2E83"></path>
<path d="M249.56 242.71C253.974 246.934 256.451 248.764 261.371 252.312C265.706 254.35 269.085 255.891 273.607 257.586C278.75 258.578 280.011 257.947 284.656 255.976L282.355 259.257C271.099 264.873 257.022 277.411 244.869 271.021C239.198 267.347 235.598 264.693 230.315 260.47C233.404 258.577 237.933 257.452 241.48 256.781C244.134 252.068 246.827 247.378 249.56 242.71Z" fill="#5C3E94"></path>
<path d="M273.6 257.587C278.743 258.578 280.004 257.947 284.649 255.976L282.348 259.257C271.092 264.873 257.015 277.411 244.861 271.021C246.908 268.947 250.076 269.658 253.261 268.154C260.132 264.909 266.852 261.108 273.6 257.587Z" fill="#6E51A9"></path>
<path d="M249.551 242.71C253.964 246.934 256.441 248.764 261.362 252.312C257.962 253.997 255.978 251.961 253.689 252.78C250.414 253.952 247.53 257.595 243.697 258.341C242.547 257.731 242.336 257.728 241.471 256.781C244.124 252.068 246.818 247.378 249.551 242.71Z" fill="#4D2E83"></path>
<path d="M264.567 95.9292C266.363 95.3463 276.304 94.8851 278.828 94.7207C272.355 103.968 266.268 113.575 259.926 122.62C245.473 147.627 237.939 163.532 225.831 189.041C224.765 191.571 222.578 197.231 221.399 199.427L219.872 199.641L220.012 197.642C211.079 184.685 182.194 184.534 167.741 185.165C162.443 185.435 154.202 188.009 149.018 186.348C147.282 185.792 146.94 183.802 146.388 182.24C149.202 174.936 155.934 165.67 160.77 159.481C185.114 128.33 224.573 100.61 264.567 95.9292Z" fill="#5C3E94"></path>
<path d="M170.474 182.247C173.323 179.293 176.839 174.252 179.357 170.7C191.286 153.881 239.451 119.682 259.922 122.62C245.469 147.627 237.935 163.532 225.827 189.041C224.762 191.571 222.574 197.231 221.396 199.427L219.868 199.641L220.009 197.642C211.075 184.685 182.19 184.534 167.737 185.165C168.72 183.514 168.918 183.447 170.474 182.247Z" fill="#4D2E83"></path>
<path d="M170.474 182.247C187.967 178.602 211.376 176.545 225.827 189.041C224.762 191.571 222.574 197.231 221.396 199.426L219.868 199.64L220.009 197.641C211.075 184.684 182.19 184.533 167.737 185.165C168.72 183.513 168.918 183.446 170.474 182.247Z" fill="#362656"></path>
<path d="M160.77 159.482C155.934 165.67 149.202 174.937 146.388 182.241H148.278C178.681 132.1 224.804 110.541 225.947 108.726C234.107 105.125 243.199 101.487 251.847 99.2256C256.336 98.0512 261.021 98.1794 265.819 96.6733L264.567 95.9297C224.573 100.61 185.114 128.33 160.77 159.482Z" fill="#6E51A9"></path>
<path d="M360.559 29.075C374.082 20.1921 440.95 -7.25002 454.348 1.81023C459.145 7.12705 458.112 23.1412 457.707 30.2487C456.572 50.1294 450.81 76.5209 443.032 94.8659C440.892 84.7999 438.024 76.6592 432.39 67.869C429.875 64.1741 427.252 60.9534 424.471 57.4743C410.676 41.9047 391.591 33.7872 371.52 30.1133C367.862 29.8215 364.207 29.4754 360.559 29.075Z" fill="#5C3E94"></path>
<path d="M454.339 1.81055C459.136 7.12737 458.103 23.1416 457.698 30.249C456.563 50.1297 450.801 76.5212 443.023 94.8662C440.883 84.8002 438.015 76.6595 432.381 67.8694C429.866 64.1744 427.243 60.9538 424.462 57.4746C436.89 41.1397 448.334 22.8353 454.061 2.90027L454.339 1.81055Z" fill="#4D2E83"></path>
<path d="M360.559 29.075C374.082 20.1921 440.95 -7.25002 454.348 1.81023L454.07 2.89995C430.282 4.98454 409.953 11.8733 387.998 21.061C383.565 22.9168 375.39 26.1664 371.831 29.0004L371.52 30.1133C367.862 29.8215 364.207 29.4754 360.559 29.075Z" fill="#6E51A9"></path>
<path d="M264.299 190.82C270.475 186.634 273.701 186.784 278.8 192.664L277.67 194.889C276.103 204.721 256.623 234.736 249.56 242.709C246.827 247.376 244.133 252.067 241.48 256.78C237.933 257.451 233.404 258.576 230.315 260.468C224.716 263.27 214.125 268.891 208.551 265.336C206.783 257.949 211.126 251.754 214.691 245.311C201.951 232.091 211.193 221.781 216.529 207.367C217.479 204.8 218.78 202.165 219.877 199.641L221.404 199.427C220.378 205.101 220.851 207.786 222.153 213.425L228.037 223.494L228.907 223.857C230.341 222.849 235.335 217.386 236.719 215.901C242.65 209.529 247.285 204.554 254.097 199.148C256.339 196.553 261.312 192.478 264.299 190.82Z" fill="#6E51A9"></path>
<path d="M264.302 190.82C270.478 186.634 273.705 186.784 278.804 192.664L277.673 194.889C276.106 204.721 256.627 234.736 249.563 242.709C246.83 247.376 244.137 252.067 241.483 256.78C237.936 257.451 233.407 258.576 230.318 260.468C224.72 263.27 214.129 268.891 208.555 265.336L212.611 264.084C214.286 261.787 216.187 257.809 218.181 255.008C223.103 248.095 228.262 241.601 233.682 235.088C241.689 225.619 250.004 216.415 258.613 207.49C262.11 203.909 272.938 194.949 273.427 190.77C270.446 187.736 269.07 192.573 264.302 190.82Z" fill="#5C3E94"></path>
<path d="M212.611 264.084C222.099 259.39 235.706 254.91 241.541 245.612C252.108 228.776 268.647 212.772 276.697 194.749L277.673 194.889C276.106 204.721 256.627 234.735 249.563 242.709C246.83 247.376 244.137 252.067 241.483 256.78C237.936 257.451 233.407 258.575 230.318 260.468C224.72 263.27 214.129 268.89 208.555 265.336L212.611 264.084Z" fill="#4D2E83"></path>
<path d="M219.874 199.641L221.401 199.426C220.375 205.101 220.848 207.786 222.15 213.425L228.034 223.494C225.355 225.791 224.624 227.081 222.667 229.996C219.683 233.811 217.035 237.332 216.662 242.345L214.689 245.31C201.948 232.09 211.191 221.78 216.526 207.367C217.476 204.8 218.777 202.165 219.874 199.641Z" fill="#5C3E94"></path>
<path d="M222.151 213.425L228.034 223.494C225.355 225.791 224.624 227.082 222.667 229.996C221.781 224.907 219.862 217.922 222.151 213.425Z" fill="#4D2E83"></path>
<path d="M254.097 199.149L254.996 200.18C253.993 203.705 237.56 216.096 234.813 220.475C234.512 220.956 230.377 225.138 229.602 225.882L228.907 223.857C230.341 222.85 235.335 217.386 236.719 215.901C242.65 209.529 247.285 204.554 254.097 199.149Z" fill="#4D2E83"></path>
<path d="M228.039 223.493L228.909 223.855L229.604 225.881C225.008 231.241 220.927 236.718 216.667 242.344C217.041 237.331 219.688 233.81 222.672 229.995C224.629 227.08 225.36 225.79 228.039 223.493Z" fill="#4D2E83"></path>
<path d="M372.715 48.9643C389.685 46.0304 405.796 57.4873 408.601 74.4841C411.406 91.4808 399.829 107.509 382.816 110.185C365.984 112.832 350.168 101.403 347.394 84.5884C344.62 67.7727 355.925 51.8671 372.715 48.9643Z" fill="#6E51A9"></path>
<path d="M355.718 84.2861C355.356 81.8416 355.14 80.2385 355.553 77.7767C356.617 71.4411 360.183 65.7992 365.448 62.121C372.063 57.4942 377.883 57.2335 385.428 58.5832C397.867 63.8768 403.72 73.9276 397.579 86.8942C394.781 92.7845 389.739 97.307 383.581 99.4495C370.9 103.899 358.271 97.9956 355.718 84.2861Z" fill="#00C2AF"></path>
<path d="M355.718 84.2861C355.356 81.8416 355.14 80.2385 355.553 77.7767C356.617 71.4411 360.183 65.7992 365.448 62.121C372.063 57.4942 377.883 57.2335 385.428 58.5832L384.542 62.8066C392.829 76.0954 377.461 72.8154 373.528 76.0781C372.686 78.8686 372.209 81.4195 370.043 83.3759C366.024 85.4627 363.578 84.5156 359.686 83.0117L358.751 82.914C357.441 81.2399 357.323 79.3878 357.27 77.238C356.343 78.2771 355.998 82.5208 355.718 84.2861Z" fill="#B6C4D5"></path>
<path d="M355.718 84.2861C355.356 81.8416 355.14 80.2385 355.553 77.7767C356.617 71.4411 360.183 65.7992 365.448 62.121C372.063 57.4942 377.883 57.2335 385.428 58.5832L384.542 62.8066C381.266 61.331 378.517 59.8821 374.973 61.2246C373.604 62.5583 371.01 67.7339 370.487 67.8447C359.078 70.2631 357.829 69.434 359.686 83.0117L358.751 82.914C357.441 81.2399 357.323 79.3878 357.27 77.238C356.343 78.2771 355.998 82.5208 355.718 84.2861Z" fill="#B7F8ED"></path>
<path d="M84.3034 402.399L40.2353 402.493C35.1601 402.5 30.9853 404.917 28.2897 407.531C25.7236 410.022 22.962 414.224 23.0425 419.461C23.1287 424.725 25.1683 429.916 30.159 433.185L30.9092 433.644C34.6736 435.824 38.8521 436.231 41.502 436.395C44.1474 436.559 48.4787 436.544 50.869 436.625C53.8619 436.725 56.6193 436.971 59.2153 437.588L61.1051 438.088C78.6379 443.235 89.6751 460.167 87.9806 477.901C86.2181 496.321 70.7713 511.819 51.2994 511.864L0 512V491.425H54.7347C57.3575 491.425 59.9448 490.633 61.8799 488.863C62.2341 488.539 62.601 488.191 62.9662 487.826C66.2887 484.503 67.8003 479.385 67.5452 473.638C67.3423 469.127 65.7642 464.385 61.6175 461.077L60.7526 460.434C57.3266 458.065 53.4392 457.445 50.7132 457.224L49.6228 457.15L47.2575 457.06C44.9014 457.005 42.602 457.043 40.6329 457.007C37.8621 456.956 35.1615 456.771 32.1185 456.105C13.3486 451.988 1.20015 434.896 2.75067 416.288C4.31122 397.581 19.952 382.005 39.1284 381.968L84.3321 381.886L84.3034 402.399Z" fill="#F2F6F9"></path>
<path d="M304.624 474.72C304.478 496.321 283.857 512.587 262.392 511.983C241.031 511.377 223.798 494.975 222.104 473.49L221.989 471.395V417.255L241.145 417.243L241.42 472.305L241.465 473.527C242.271 485.989 254.382 493.543 264.782 492.868C276.958 492.076 285.673 482.788 286.234 470.539L286.238 470.444L286.287 417.259L305.009 417.189L304.624 474.72Z" fill="#F2F6F9"></path>
<path d="M350.967 416.398L379.909 416.468L379.978 433.837L350.951 433.989L350.861 464.361H351.18C353.156 478.559 365.101 490.542 379.941 492.618L379.884 511.827C352.741 509.751 331.661 487.42 331.639 460.118L331.589 391.683L350.811 385.354L350.967 416.398Z" fill="#F2F6F9"></path>
<path d="M418.074 416.37L447.15 416.509L447.179 433.882L418.106 433.968L418.024 448.459L418.02 448.455L417.967 458.532C417.882 475.656 429.774 490.22 447.118 492.548L447.064 511.827C419.371 509.62 398.727 487.036 398.733 459.265V391.741L417.967 385.469L418.074 416.37Z" fill="#F2F6F9"></path>
<path fill-rule="evenodd" clip-rule="evenodd" d="M514.068 429.619C527.077 416.694 546.431 412.564 564.626 419.325C581.021 425.424 593.861 441.657 594.789 460.335C594.993 464.439 594.968 468.237 594.892 472.351L518.676 472.474L522.796 478.922C532.857 494.659 552.24 496.273 565.618 486.141L578.896 498.775C560.827 515.055 532.47 514.617 514.864 497.943C496.238 480.3 494.517 450.535 512.831 430.898L514.068 429.619ZM547.031 434.263C537.664 434.215 528.011 438.989 522.808 448.14L519.242 454.416L575.612 454.395L571.96 448.066C566.303 438.481 556.547 434.311 547.031 434.263Z" fill="#F2F6F9"></path>
<path d="M132.709 422.945L138.427 420.69C152.872 414.991 167.011 416.151 179.753 424.695C190.004 431.575 197.943 444.004 197.987 457.835L198.139 510.102L178.974 510.155L178.945 460.241C178.944 447.548 169.713 437.328 157.243 436.358C145.092 435.404 132.692 444.95 132.672 458.446L132.586 510.106L113.339 510.085V379.02L132.557 372.65L132.709 422.945Z" fill="#F2F6F9"></path>
<path d="M483.52 510.081L464.122 510.126L464.101 379.061L483.483 372.724L483.52 510.081Z" fill="#F2F6F9"></path>
</svg>